<?xml version="1.0" encoding="utf-8"?>
<!-- Generator: Adobe Illustrator 16.0.0, SVG Export Plug-In . SVG Version: 6.00 Build 0)  -->
<!DOCTYPE svg PUBLIC "-//W3C//DTD SVG 1.1//EN" "http://www.w3.org/Graphics/SVG/1.1/DTD/svg11.dtd">
<svg version="1.1" id="Layer_1" xmlns="http://www.w3.org/2000/svg" xmlns:xlink="http://www.w3.org/1999/xlink" x="0px" y="0px"
	 width="333.712px" height="139.223px" viewBox="322 195.943 333.712 139.223"
	 style="enable-background:new 322 195.943 333.712 139.223;" xml:space="preserve">
<style type="text/css">
<![CDATA[
	.st0{fill:#137C76;}
	.st1{fill:#179D82;}
	.st2{opacity:0.7;fill:url(#SVGID_5_);enable-background:new    ;}
	.st3{fill:url(#SVGID_1_);}
	.st4{fill:url(#SVGID_3_);}
	.st5{fill:url(#SVGID_4_);}
	.st6{opacity:0.6;fill:url(#SVGID_2_);enable-background:new    ;}
]]>
</style>
<g>
	<path class="st1" d="M427.516,319.761c-5.596,0-10.659-1.064-15.189-3.189c-4.532-2.124-8.396-5.017-11.593-8.678
		c-3.199-3.652-5.664-7.905-7.396-12.753c-1.733-4.841-2.599-9.935-2.599-15.271c0-5.536,0.844-10.753,2.532-15.646
		c1.687-4.894,4.131-9.194,7.329-12.902c3.198-3.707,7.083-6.647,11.66-8.824c4.573-2.173,9.704-3.263,15.391-3.263
		c5.685,0,10.771,1.089,15.258,3.263c4.483,2.176,8.305,5.093,11.459,8.75c3.153,3.659,5.551,7.911,7.196,12.754
		c1.644,4.846,2.465,9.887,2.465,15.126c0,1.286-0.022,2.521-0.066,3.708c-0.046,1.187-0.156,2.174-0.333,2.967H409.66
		c0.267,3.063,0.933,5.782,1.999,8.154c1.065,2.374,2.441,4.399,4.131,6.081c1.687,1.682,3.598,2.965,5.729,3.855
		c2.133,0.89,4.354,1.334,6.664,1.334c3.554,0,6.905-0.963,10.061-2.892c3.153-1.929,5.307-4.474,6.463-7.637l0.114,0.034
		l11.402,3.529l3.809,1.18c-0.812,1.867-1.774,3.632-2.891,5.287c-2.427,3.605-5.571,6.715-9.437,9.321
		C442.061,317.858,435.333,319.761,427.516,319.761z M445.638,272.897c-0.444-5.832-2.377-10.503-5.796-14.014
		c-3.421-3.509-7.575-5.265-12.46-5.265c-2.397,0-4.642,0.471-6.729,1.409c-2.087,0.94-3.932,2.25-5.53,3.93
		c-1.6,1.683-2.911,3.707-3.931,6.081c-1.022,2.372-1.622,4.994-1.801,7.859H445.638z"/>
	<path class="st1" d="M584.254,251.577c-0.814-1.996-1.41-4.577-1.841-5.577H570v-7.004c0-9.479,3.472-14.224,10.599-14.224
		c0.354,0,0.928,0.09,1.689,0.233c0.836-6.283,2.251-12.038,3.472-16.193c-3.231-0.758-6.464-1.141-9.67-1.141
		c-8.248,0-14.445,2.875-19.229,8.625c-4.785,5.752-6.859,13.571-6.859,23.458v4.841v15.437V320h20v-60h19.229
		C587.304,258,585.624,254.934,584.254,251.577z"/>
	<path class="st1" d="M539.049,301.37c-1.511-0.099-2.991-0.595-3.655-1.481c-0.667-0.891-1.394-2.373-1.394-4.451v-24.17
		c0-10.381-2.384-18.315-7.938-23.802c-5.552-5.486-13.148-8.23-23.188-8.23c-6.762,0-13.126,1.403-19.287,4.208
		c-3.308,1.506-4.152,18.333-4.152,18.333c3.731-2.867,7.396-5.042,10.953-6.525c3.551-1.483,7.207-2.225,10.938-2.225
		c5.153,0,9.581,1.386,12.2,4.151c2.619,2.771,4.474,6.725,4.474,11.865v4.448c-4-1.087-5.488-1.927-8.463-2.521
		c-2.979-0.593-6.289-0.89-9.398-0.89c-4.354,0-8.481,0.619-12.125,1.854c-3.642,1.238-6.842,2.943-9.462,5.116
		c-2.621,2.178-4.697,4.82-6.163,7.936c-1.465,3.115-2.213,6.502-2.213,10.156c0,3.562,0.59,6.824,1.789,9.789
		c1.199,2.964,2.861,5.562,4.994,7.787c2.132,2.224,4.661,3.953,7.592,5.19c2.934,1.23,6.082,1.854,9.461,1.854
		c5.063,0,9.812-1.188,14.257-3.561c4.44-2.372,8.218-5.832,11.326-10.38l0.4,4.301c0.441,2.77,1.576,4.992,3.396,6.672
		c1.821,1.68,4.418,2.52,7.795,2.52c2.22,0,4.843-0.348,7.861-1.036c0,0,2.179-0.125,2.225-1.725l0.948-16.725
		C542.222,299.827,541.394,301.537,539.049,301.37z M518,293.066c0,2.074-1.515,3.955-3.467,5.635
		c-1.514,1.979-3.89,3.559-6.596,4.746c-2.714,1.185-5.712,1.777-8.729,1.777c-3.377,0-6.287-1.11-8.598-3.336
		c-2.31-2.225-3.496-5.018-3.496-8.379c0-3.559,1.448-6.5,4.382-8.822c2.931-2.322,6.696-3.485,11.316-3.485
		c2.31,0,5.236,0.272,7.727,0.815c2.487,0.545,3.461,1.26,7.461,2.149V293.066z"/>
	<path class="st1" d="M444.706,294.698"/>
	<path class="st1" d="M444.82,294.732l-0.353-0.104c0,0,0.194,0.323-0.744,2.651"/>
	
		<linearGradient id="SVGID_1_" gradientUnits="userSpaceOnUse" x1="698.2363" y1="231.2202" x2="731.7119" y2="231.2202" gradientTransform="matrix(1 0 0 -1 -76 495)">
		<stop  offset="0.0148" style="stop-color:#149A7F"/>
		<stop  offset="0.1563" style="stop-color:#158E7B"/>
		<stop  offset="0.3562" style="stop-color:#158C7C"/>
		<stop  offset="0.7037" style="stop-color:#157B81"/>
		<stop  offset="1" style="stop-color:#157284"/>
	</linearGradient>
	<path class="st3" d="M650.394,270.097c-6.631,9.858-23.695,9.96-23.904,9.766c-2.308-2.166-5.44-8.343-3.793-15.315
		c0.466-1.988,1.322-4.038,2.696-6.083c2.401-3.569,7.021-5.97,11.939-7.583c8.661-2.84,18.247-3.226,18.247-3.226
		S657.023,260.234,650.394,270.097z"/>
	<path class="st1" d="M612.262,274.654c-1.278,0-2.901-0.193-4.375-0.575c-3.898-0.999-7.921-3.177-11.41-6.188l-4.25,54.62
		c5.643-7.106,21.773,0.593,21.773,0.593v-48.526C613,274.621,612.742,274.654,612.262,274.654z"/>
	<path d="M317.849,230.839"/>
	<path d="M320.198,238.362"/>
	<path class="st1" d="M339,302v-89.015c0,0-17,2.849-17,15.094V318h65v-16H339z"/>
	<path class="st1" d="M640,315.452v-26.556c0-2.166,0.348-4.119,1.576-5.614c-7.485,2.721-15.726,2.739-15.87,2.614
		c-0.792-0.658-1.769-1.739-2.543-3.08c-0.346-0.15-0.585-0.25-0.585-0.25l-1.517,40.102c7.894-4.693,16.483-2.546,20.972-1.084
		C640.538,320.041,640,317.874,640,315.452z"/>
	<path d="M345.097,252.914"/>
	<g>
		
			<linearGradient id="SVGID_2_" gradientUnits="userSpaceOnUse" x1="630.7607" y1="252.4453" x2="641.4512" y2="252.4453" gradientTransform="matrix(0.9915 -0.1305 -0.1305 -0.9915 -13.983 540.8462)">
			<stop  offset="0.1563" style="stop-color:#158E7B"/>
			<stop  offset="0.3562" style="stop-color:#158C7C"/>
			<stop  offset="0.7037" style="stop-color:#157B81"/>
			<stop  offset="1" style="stop-color:#157284"/>
		</linearGradient>
		<polygon class="st6" points="586.636,198.155 595.633,214.975 598.013,202.659 		"/>
		
			<linearGradient id="SVGID_3_" gradientUnits="userSpaceOnUse" x1="664.9072" y1="259.6753" x2="694.8613" y2="259.6753" gradientTransform="matrix(1.0017 0.0042 -0.0042 -1.0102 -75.6546 495.425)">
			<stop  offset="0.1563" style="stop-color:#158E7B"/>
			<stop  offset="0.3562" style="stop-color:#158C7C"/>
			<stop  offset="0.7037" style="stop-color:#157B81"/>
			<stop  offset="1" style="stop-color:#157284"/>
		</linearGradient>
		<path class="st4" d="M616.502,231.335c7.104,17.393-1.324,37.249-1.635,37.294c-1.009,0.159-2.413,0.059-4.062-0.385
			c-3.984-1.059-9.39-4.106-14.021-10.315c-1.864-2.498-3.604-5.515-5.075-9.119c-7.104-17.391,3.676-45.594,3.676-45.594
			S609.398,213.944,616.502,231.335z"/>
		
			<linearGradient id="SVGID_4_" gradientUnits="userSpaceOnUse" x1="646.3701" y1="290.123" x2="673.7939" y2="290.123" gradientTransform="matrix(0.86 -0.1322 -0.1979 -1.2879 64.995 671.5632)">
			<stop  offset="0.1563" style="stop-color:#158E7B"/>
			<stop  offset="0.7114" style="stop-color:#158C7C"/>
			<stop  offset="0.8229" style="stop-color:#15877D"/>
			<stop  offset="0.9503" style="stop-color:#157982"/>
			<stop  offset="1" style="stop-color:#157284"/>
		</linearGradient>
		<polyline class="st5" points="595.4,199.766 582.174,195.943 595.782,209.043 609.854,218.972 603.023,207.93 		"/>
		
			<linearGradient id="SVGID_5_" gradientUnits="userSpaceOnUse" x1="654.2686" y1="253.8828" x2="677.3789" y2="253.8828" gradientTransform="matrix(1 0 0 -1 -76 495)">
			<stop  offset="0.1563" style="stop-color:#158E7B"/>
			<stop  offset="0.3562" style="stop-color:#158C7C"/>
			<stop  offset="0.7037" style="stop-color:#157B81"/>
			<stop  offset="1" style="stop-color:#157284"/>
		</linearGradient>
		<path class="st2" d="M609.854,218.972l-11.234,40.927l18.107,3.363C616.727,263.262,631.694,229.266,609.854,218.972z"/>
	</g>
	<path class="st0" d="M659.326,236.53"/>
	<path class="st1" d="M427.516,319.761c-5.596,0-10.659-1.064-15.189-3.189c-4.532-2.124-8.396-5.017-11.593-8.678
		c-3.199-3.652-5.664-7.905-7.396-12.753c-1.733-4.841-2.599-9.935-2.599-15.271c0-5.536,0.844-10.753,2.532-15.646
		c1.687-4.894,4.131-9.194,7.329-12.902c3.198-3.707,7.083-6.647,11.66-8.824c4.573-2.173,9.704-3.263,15.391-3.263
		c5.685,0,10.771,1.089,15.258,3.263c4.483,2.176,8.305,5.093,11.459,8.75c3.153,3.659,5.551,7.911,7.196,12.754
		c1.644,4.846,2.465,9.887,2.465,15.126c0,1.286-0.022,2.521-0.066,3.708c-0.046,1.187-0.156,2.174-0.333,2.967H409.66
		c0.267,3.063,0.933,5.782,1.999,8.154c1.065,2.374,2.441,4.399,4.131,6.081c1.687,1.682,3.598,2.965,5.729,3.855
		c2.133,0.89,4.354,1.334,6.664,1.334c3.554,0,6.905-0.963,10.061-2.892c3.153-1.929,5.307-4.474,6.463-7.637l0.114,0.034
		l11.402,3.529l3.809,1.18c-0.812,1.867-1.774,3.632-2.891,5.287c-2.427,3.605-5.571,6.715-9.437,9.321
		C442.061,317.858,435.333,319.761,427.516,319.761z M445.638,272.897c-0.444-5.832-2.377-10.503-5.796-14.014
		c-3.421-3.509-7.575-5.265-12.46-5.265c-2.397,0-4.642,0.471-6.729,1.409c-2.087,0.94-3.932,2.25-5.53,3.93
		c-1.6,1.683-2.911,3.707-3.931,6.081c-1.022,2.372-1.622,4.994-1.801,7.859H445.638z"/>
	<path class="st1" d="M584.254,251.577c-0.814-1.996-1.41-4.577-1.841-5.577H570v-7.004c0-9.479,3.472-14.224,10.599-14.224
		c0.354,0,0.928,0.09,1.689,0.233c0.836-6.283,2.251-12.038,3.472-16.193c-3.231-0.758-6.464-1.141-9.67-1.141
		c-8.248,0-14.445,2.875-19.229,8.625c-4.785,5.752-6.859,13.571-6.859,23.458v4.841v15.437V320h20v-60h19.229
		C587.304,258,585.624,254.934,584.254,251.577z"/>
	<path class="st1" d="M539.049,301.37c-1.511-0.099-2.991-0.595-3.655-1.481c-0.667-0.891-1.394-2.373-1.394-4.451v-24.17
		c0-10.381-2.384-18.315-7.938-23.802c-5.552-5.486-13.148-8.23-23.188-8.23c-6.762,0-13.126,1.403-19.287,4.208
		c-3.308,1.506-4.152,18.333-4.152,18.333c3.731-2.867,7.396-5.042,10.953-6.525c3.551-1.483,7.207-2.225,10.938-2.225
		c5.153,0,9.581,1.386,12.2,4.151c2.619,2.771,4.474,6.725,4.474,11.865v4.448c-4-1.087-5.488-1.927-8.463-2.521
		c-2.979-0.593-6.289-0.89-9.398-0.89c-4.354,0-8.481,0.619-12.125,1.854c-3.642,1.238-6.842,2.943-9.462,5.116
		c-2.621,2.178-4.697,4.82-6.163,7.936c-1.465,3.115-2.213,6.502-2.213,10.156c0,3.562,0.59,6.824,1.789,9.789
		c1.199,2.964,2.861,5.562,4.994,7.787c2.132,2.224,4.661,3.953,7.592,5.19c2.934,1.23,6.082,1.854,9.461,1.854
		c5.063,0,9.812-1.188,14.257-3.561c4.44-2.372,8.218-5.832,11.326-10.38l0.4,4.301c0.441,2.77,1.576,4.992,3.396,6.672
		c1.821,1.68,4.418,2.52,7.795,2.52c2.22,0,4.843-0.348,7.861-1.036c0,0,2.179-0.125,2.225-1.725l0.948-16.725
		C542.222,299.827,541.394,301.537,539.049,301.37z M518,293.066c0,2.074-1.515,3.955-3.467,5.635
		c-1.514,1.979-3.89,3.559-6.596,4.746c-2.714,1.185-5.712,1.777-8.729,1.777c-3.377,0-6.287-1.11-8.598-3.336
		c-2.31-2.225-3.496-5.018-3.496-8.379c0-3.559,1.448-6.5,4.382-8.822c2.931-2.322,6.696-3.485,11.316-3.485
		c2.31,0,5.236,0.272,7.727,0.815c2.487,0.545,3.461,1.26,7.461,2.149V293.066z"/>
	<path class="st1" d="M444.706,294.698"/>
	<path class="st1" d="M444.82,294.732l-0.353-0.104c0,0,0.194,0.323-0.744,2.651"/>
	<path d="M317.849,230.839"/>
	<path d="M320.198,238.362"/>
	<path class="st1" d="M339,302v-89.015c0,0-17,2.849-17,15.094V318h65v-16H339z"/>
	<path d="M345.097,252.914"/>
	<path class="st0" d="M659.326,236.53"/>
</g>
<path d="M319.918,363.291"/>
</svg>
